<mxfile host="65bd71144e">
    <diagram id="fZHcdfpj9bSioFnKkA3-" name="Page-1">
        <mxGraphModel dx="3257" dy="1783" grid="1" gridSize="10" guides="1" tooltips="1" connect="1" arrows="1" fold="1" page="1" pageScale="1" pageWidth="850" pageHeight="1100" math="0" shadow="0">
            <root>
                <mxCell id="0"/>
                <mxCell id="1" parent="0"/>
                <mxCell id="179" value="ALT" style="shape=umlFrame;whiteSpace=wrap;html=1;gradientColor=default;swimlaneFillColor=#9933FF;opacity=10;" parent="1" vertex="1">
                    <mxGeometry x="-940" y="780" width="9410" height="2520" as="geometry"/>
                </mxCell>
                <mxCell id="102" value="ALT" style="shape=umlFrame;whiteSpace=wrap;html=1;gradientColor=#9933FF;gradientDirection=radial;swimlaneFillColor=#9933FF;opacity=10;" parent="1" vertex="1">
                    <mxGeometry x="-780" y="1240" width="9020" height="1800" as="geometry"/>
                </mxCell>
                <mxCell id="112" value="&lt;font color=&quot;#ffffff&quot;&gt;ALT&lt;/font&gt;" style="shape=umlFrame;whiteSpace=wrap;html=1;gradientColor=#9933FF;gradientDirection=radial;opacity=20;shadow=1;swimlaneFillColor=#9933FF;" parent="1" vertex="1">
                    <mxGeometry x="-610" y="1320" width="8600" height="1480" as="geometry"/>
                </mxCell>
                <mxCell id="124" value="&lt;font color=&quot;#ffffff&quot;&gt;ALT&lt;/font&gt;" style="shape=umlFrame;whiteSpace=wrap;html=1;shadow=1;gradientColor=#9933FF;gradientDirection=radial;opacity=20;swimlaneFillColor=#9933FF;" parent="1" vertex="1">
                    <mxGeometry x="-390" y="1400" width="8160" height="1180" as="geometry"/>
                </mxCell>
                <mxCell id="132" value="&lt;font color=&quot;#ffffff&quot;&gt;ALT&lt;/font&gt;" style="shape=umlFrame;whiteSpace=wrap;html=1;shadow=1;gradientColor=#9933FF;gradientDirection=radial;opacity=20;swimlaneFillColor=#9933FF;" parent="1" vertex="1">
                    <mxGeometry x="-180" y="1480" width="7700" height="890" as="geometry"/>
                </mxCell>
                <mxCell id="0sKXGP65VLch3woQKcrV-247" style="edgeStyle=none;html=1;curved=0;rounded=0;dashed=1;endArrow=open;endFill=0;" parent="1" source="3" target="19" edge="1">
                    <mxGeometry relative="1" as="geometry">
                        <Array as="points">
                            <mxPoint x="1050" y="680"/>
                        </Array>
                    </mxGeometry>
                </mxCell>
                <mxCell id="0sKXGP65VLch3woQKcrV-355" value="userAccountProfile&quot;,&quot;eventStore&quot;,&lt;br style=&quot;border-color: var(--border-color);&quot;&gt;&quot;accessRules&quot;, &quot;ISO&amp;amp;ITOSpec&quot;" style="edgeLabel;html=1;align=center;verticalAlign=middle;resizable=0;points=[];" parent="0sKXGP65VLch3woQKcrV-247" vertex="1" connectable="0">
                    <mxGeometry x="0.052" y="-3" relative="1" as="geometry">
                        <mxPoint as="offset"/>
                    </mxGeometry>
                </mxCell>
                <mxCell id="3" value="RepositoryFactory" style="shape=umlLifeline;perimeter=lifelinePerimeter;whiteSpace=wrap;html=1;container=1;dropTarget=0;collapsible=0;recursiveResize=0;outlineConnect=0;portConstraint=eastwest;newEdgeStyle={&quot;curved&quot;:0,&quot;rounded&quot;:0};fillColor=#f8cecc;strokeColor=#000000;" parent="1" vertex="1">
                    <mxGeometry x="1120" y="10" width="200" height="3680" as="geometry"/>
                </mxCell>
                <mxCell id="4" value="" style="html=1;points=[[0,0,0,0,5],[0,1,0,0,-5],[1,0,0,0,5],[1,1,0,0,-5]];perimeter=orthogonalPerimeter;outlineConnect=0;targetShapes=umlLifeline;portConstraint=eastwest;newEdgeStyle={&quot;curved&quot;:0,&quot;rounded&quot;:0};fillColor=#f8cecc;strokeColor=#b85450;" parent="3" vertex="1">
                    <mxGeometry x="95" y="100" width="10" height="3520" as="geometry"/>
                </mxCell>
                <mxCell id="6" value="" style="shape=umlLifeline;perimeter=lifelinePerimeter;whiteSpace=wrap;html=1;container=1;dropTarget=0;collapsible=0;recursiveResize=0;outlineConnect=0;portConstraint=eastwest;newEdgeStyle={&quot;curved&quot;:0,&quot;rounded&quot;:0};participant=umlActor;size=50;" parent="1" vertex="1">
                    <mxGeometry x="140" y="50" width="30" height="3620" as="geometry"/>
                </mxCell>
                <mxCell id="7" value="" style="html=1;points=[[0,0,0,0,5],[0,1,0,0,-5],[1,0,0,0,5],[1,1,0,0,-5]];perimeter=orthogonalPerimeter;outlineConnect=0;targetShapes=umlLifeline;portConstraint=eastwest;newEdgeStyle={&quot;curved&quot;:0,&quot;rounded&quot;:0};" parent="6" vertex="1">
                    <mxGeometry x="10" y="80" width="10" height="3470" as="geometry"/>
                </mxCell>
                <mxCell id="9" value=":UserAccountProfileController" style="shape=umlLifeline;perimeter=lifelinePerimeter;whiteSpace=wrap;html=1;container=1;dropTarget=0;collapsible=0;recursiveResize=0;outlineConnect=0;portConstraint=eastwest;newEdgeStyle={&quot;curved&quot;:0,&quot;rounded&quot;:0};fillColor=#6d8764;strokeColor=#3A5431;fontColor=#ffffff;" parent="1" vertex="1">
                    <mxGeometry x="350" y="10" width="170" height="3660" as="geometry"/>
                </mxCell>
                <mxCell id="10" value="" style="html=1;points=[[0,0,0,0,5],[0,1,0,0,-5],[1,0,0,0,5],[1,1,0,0,-5]];perimeter=orthogonalPerimeter;outlineConnect=0;targetShapes=umlLifeline;portConstraint=eastwest;newEdgeStyle={&quot;curved&quot;:0,&quot;rounded&quot;:0};fillColor=#6d8764;strokeColor=#3A5431;fontColor=#ffffff;" parent="9" vertex="1">
                    <mxGeometry x="80" y="100" width="10" height="3480" as="geometry"/>
                </mxCell>
                <mxCell id="12" style="edgeStyle=orthogonalEdgeStyle;rounded=0;orthogonalLoop=1;jettySize=auto;html=1;curved=0;" parent="1" edge="1">
                    <mxGeometry relative="1" as="geometry">
                        <Array as="points">
                            <mxPoint x="285" y="150"/>
                            <mxPoint x="285" y="150"/>
                        </Array>
                        <mxPoint x="155" y="150.0588235294117" as="sourcePoint"/>
                        <mxPoint x="430" y="150.0588235294117" as="targetPoint"/>
                    </mxGeometry>
                </mxCell>
                <mxCell id="13" value="createUserAccount(form):void" style="edgeLabel;html=1;align=center;verticalAlign=middle;resizable=0;points=[];" parent="12" connectable="0" vertex="1">
                    <mxGeometry x="-0.1654" y="3" relative="1" as="geometry">
                        <mxPoint as="offset"/>
                    </mxGeometry>
                </mxCell>
                <mxCell id="14" value="external system" style="text;html=1;align=center;verticalAlign=middle;resizable=0;points=[];autosize=1;strokeColor=none;fillColor=none;" parent="1" vertex="1">
                    <mxGeometry x="100" y="100" width="110" height="30" as="geometry"/>
                </mxCell>
                <mxCell id="18" value=":UserAccountProfileApplicationService" style="shape=umlLifeline;perimeter=lifelinePerimeter;whiteSpace=wrap;html=1;container=1;dropTarget=0;collapsible=0;recursiveResize=0;outlineConnect=0;portConstraint=eastwest;newEdgeStyle={&quot;curved&quot;:0,&quot;rounded&quot;:0};fillColor=#dae8fc;strokeColor=#000000;" parent="1" vertex="1">
                    <mxGeometry x="750" y="10" width="200" height="3660" as="geometry"/>
                </mxCell>
                <mxCell id="19" value="" style="html=1;points=[[0,0,0,0,5],[0,1,0,0,-5],[1,0,0,0,5],[1,1,0,0,-5]];perimeter=orthogonalPerimeter;outlineConnect=0;targetShapes=umlLifeline;portConstraint=eastwest;newEdgeStyle={&quot;curved&quot;:0,&quot;rounded&quot;:0};fillColor=#dae8fc;strokeColor=#6c8ebf;" parent="18" vertex="1">
                    <mxGeometry x="95" y="99" width="10" height="3511" as="geometry"/>
                </mxCell>
                <mxCell id="33" value="&lt;b&gt;&lt;font style=&quot;font-size: 25px;&quot;&gt;REGISTERING USER ACCOUNT PROFILE&lt;/font&gt;&lt;/b&gt;" style="text;html=1;align=center;verticalAlign=middle;resizable=0;points=[];autosize=1;strokeColor=none;fillColor=none;" parent="1" vertex="1">
                    <mxGeometry x="3840" y="-360" width="520" height="40" as="geometry"/>
                </mxCell>
                <mxCell id="35" value=":UserAccountProfileRepository" style="shape=umlLifeline;perimeter=lifelinePerimeter;whiteSpace=wrap;html=1;container=1;dropTarget=0;collapsible=0;recursiveResize=0;outlineConnect=0;portConstraint=eastwest;newEdgeStyle={&quot;curved&quot;:0,&quot;rounded&quot;:0};fillColor=#f8cecc;strokeColor=#000000;" parent="1" vertex="1">
                    <mxGeometry x="2280" y="330" width="200" height="3380" as="geometry"/>
                </mxCell>
                <mxCell id="36" value="" style="html=1;points=[[0,0,0,0,5],[0,1,0,0,-5],[1,0,0,0,5],[1,1,0,0,-5]];perimeter=orthogonalPerimeter;outlineConnect=0;targetShapes=umlLifeline;portConstraint=eastwest;newEdgeStyle={&quot;curved&quot;:0,&quot;rounded&quot;:0};fillColor=#f8cecc;strokeColor=#b85450;" parent="35" vertex="1">
                    <mxGeometry x="95" y="100" width="10" height="3210" as="geometry"/>
                </mxCell>
                <mxCell id="54" value=":EventStore" style="shape=umlLifeline;perimeter=lifelinePerimeter;whiteSpace=wrap;html=1;container=1;dropTarget=0;collapsible=0;recursiveResize=0;outlineConnect=0;portConstraint=eastwest;newEdgeStyle={&quot;curved&quot;:0,&quot;rounded&quot;:0};fillColor=#f8cecc;strokeColor=#000000;" parent="1" vertex="1">
                    <mxGeometry x="2710" y="438" width="200" height="3272" as="geometry"/>
                </mxCell>
                <mxCell id="55" value="" style="html=1;points=[[0,0,0,0,5],[0,1,0,0,-5],[1,0,0,0,5],[1,1,0,0,-5]];perimeter=orthogonalPerimeter;outlineConnect=0;targetShapes=umlLifeline;portConstraint=eastwest;newEdgeStyle={&quot;curved&quot;:0,&quot;rounded&quot;:0};fillColor=#f8cecc;strokeColor=#b85450;" parent="54" vertex="1">
                    <mxGeometry x="95" y="80" width="10" height="3120" as="geometry"/>
                </mxCell>
                <mxCell id="74" value="&lt;font color=&quot;#ffffff&quot;&gt;if no userAccountprofile is found&lt;/font&gt;" style="text;html=1;" parent="1" vertex="1">
                    <mxGeometry x="50" y="460" width="100" height="20" as="geometry">
                        <mxPoint x="20" y="40" as="offset"/>
                    </mxGeometry>
                </mxCell>
                <mxCell id="85" value=":UserAccountProfile" style="shape=umlLifeline;perimeter=lifelinePerimeter;whiteSpace=wrap;html=1;container=1;dropTarget=0;collapsible=0;recursiveResize=0;outlineConnect=0;portConstraint=eastwest;newEdgeStyle={&quot;curved&quot;:0,&quot;rounded&quot;:0};fillColor=#d5e8d4;strokeColor=#000000;" parent="1" vertex="1">
                    <mxGeometry x="6750" y="1500" width="200" height="2180" as="geometry"/>
                </mxCell>
                <mxCell id="87" value="" style="html=1;points=[[0,0,0,0,5],[0,1,0,0,-5],[1,0,0,0,5],[1,1,0,0,-5]];perimeter=orthogonalPerimeter;outlineConnect=0;targetShapes=umlLifeline;portConstraint=eastwest;newEdgeStyle={&quot;curved&quot;:0,&quot;rounded&quot;:0};fillColor=#d5e8d4;strokeColor=#82b366;" parent="85" vertex="1">
                    <mxGeometry x="95" y="60" width="10" height="2030" as="geometry"/>
                </mxCell>
                <mxCell id="103" value=":UserAccountId" style="shape=umlLifeline;perimeter=lifelinePerimeter;whiteSpace=wrap;html=1;container=1;dropTarget=0;collapsible=0;recursiveResize=0;outlineConnect=0;portConstraint=eastwest;newEdgeStyle={&quot;curved&quot;:0,&quot;rounded&quot;:0};fillColor=#d5e8d4;strokeColor=#000000;" parent="1" vertex="1">
                    <mxGeometry x="5410" y="1180" width="200" height="2560" as="geometry"/>
                </mxCell>
                <mxCell id="105" value="" style="html=1;points=[[0,0,0,0,5],[0,1,0,0,-5],[1,0,0,0,5],[1,1,0,0,-5]];perimeter=orthogonalPerimeter;outlineConnect=0;targetShapes=umlLifeline;portConstraint=eastwest;newEdgeStyle={&quot;curved&quot;:0,&quot;rounded&quot;:0};fillColor=#d5e8d4;strokeColor=#82b366;" parent="103" vertex="1">
                    <mxGeometry x="95" y="70" width="10" height="2410" as="geometry"/>
                </mxCell>
                <mxCell id="107" value="if userAccountId does not throw Error" style="label;fontStyle=0;strokeColor=none;fillColor=none;align=left;verticalAlign=top;overflow=hidden;spacingLeft=28;spacingRight=4;rotatable=0;points=[[0,0.5],[1,0.5]];portConstraint=eastwest;imageWidth=16;imageHeight=16;image=img/clipart/Gear_128x128.png;opacity=40;" parent="1" vertex="1">
                    <mxGeometry x="-730" y="1240" width="240" height="30" as="geometry"/>
                </mxCell>
                <mxCell id="108" value=":UserAccountProfileId" style="shape=umlLifeline;perimeter=lifelinePerimeter;whiteSpace=wrap;html=1;container=1;dropTarget=0;collapsible=0;recursiveResize=0;outlineConnect=0;portConstraint=eastwest;newEdgeStyle={&quot;curved&quot;:0,&quot;rounded&quot;:0};fillColor=#d5e8d4;strokeColor=#000000;" parent="1" vertex="1">
                    <mxGeometry x="5750" y="1259" width="200" height="2461" as="geometry"/>
                </mxCell>
                <mxCell id="110" value="" style="html=1;points=[[0,0,0,0,5],[0,1,0,0,-5],[1,0,0,0,5],[1,1,0,0,-5]];perimeter=orthogonalPerimeter;outlineConnect=0;targetShapes=umlLifeline;portConstraint=eastwest;newEdgeStyle={&quot;curved&quot;:0,&quot;rounded&quot;:0};fillColor=#d5e8d4;strokeColor=#82b366;" parent="108" vertex="1">
                    <mxGeometry x="95" y="70" width="10" height="2310" as="geometry"/>
                </mxCell>
                <mxCell id="113" value="if userAccountProfileId does not throw Error" style="label;fontStyle=0;strokeColor=none;fillColor=none;align=left;verticalAlign=top;overflow=hidden;spacingLeft=28;spacingRight=4;rotatable=0;points=[[0,0.5],[1,0.5]];portConstraint=eastwest;imageWidth=16;imageHeight=16;image=img/clipart/Gear_128x128.png;opacity=40;fontColor=#FFFFFF;" parent="1" vertex="1">
                    <mxGeometry x="-550" y="1320" width="280" height="30" as="geometry"/>
                </mxCell>
                <mxCell id="117" value=":emailAddress" style="shape=umlLifeline;perimeter=lifelinePerimeter;whiteSpace=wrap;html=1;container=1;dropTarget=0;collapsible=0;recursiveResize=0;outlineConnect=0;portConstraint=eastwest;newEdgeStyle={&quot;curved&quot;:0,&quot;rounded&quot;:0};fillColor=#d5e8d4;strokeColor=#000000;" parent="1" vertex="1">
                    <mxGeometry x="6410" y="1410" width="200" height="2290" as="geometry"/>
                </mxCell>
                <mxCell id="119" value="" style="html=1;points=[[0,0,0,0,5],[0,1,0,0,-5],[1,0,0,0,5],[1,1,0,0,-5]];perimeter=orthogonalPerimeter;outlineConnect=0;targetShapes=umlLifeline;portConstraint=eastwest;newEdgeStyle={&quot;curved&quot;:0,&quot;rounded&quot;:0};fillColor=#d5e8d4;strokeColor=#82b366;" parent="117" vertex="1">
                    <mxGeometry x="95" y="70" width="10" height="2140" as="geometry"/>
                </mxCell>
                <mxCell id="120" value=":phoneNumber" style="shape=umlLifeline;perimeter=lifelinePerimeter;whiteSpace=wrap;html=1;container=1;dropTarget=0;collapsible=0;recursiveResize=0;outlineConnect=0;portConstraint=eastwest;newEdgeStyle={&quot;curved&quot;:0,&quot;rounded&quot;:0};fillColor=#d5e8d4;strokeColor=#000000;size=40;" parent="1" vertex="1">
                    <mxGeometry x="6080" y="1340" width="200" height="2380" as="geometry"/>
                </mxCell>
                <mxCell id="122" value="" style="html=1;points=[[0,0,0,0,5],[0,1,0,0,-5],[1,0,0,0,5],[1,1,0,0,-5]];perimeter=orthogonalPerimeter;outlineConnect=0;targetShapes=umlLifeline;portConstraint=eastwest;newEdgeStyle={&quot;curved&quot;:0,&quot;rounded&quot;:0};fillColor=#d5e8d4;strokeColor=#82b366;" parent="120" vertex="1">
                    <mxGeometry x="95" y="70" width="10" height="2230" as="geometry"/>
                </mxCell>
                <mxCell id="129" value="if emailAddress does not throw Error" style="label;fontStyle=0;strokeColor=none;fillColor=none;align=left;verticalAlign=top;overflow=hidden;spacingLeft=28;spacingRight=4;rotatable=0;points=[[0,0.5],[1,0.5]];portConstraint=eastwest;imageWidth=16;imageHeight=16;image=img/clipart/Gear_128x128.png;opacity=40;fontColor=#FFFFFF;" parent="1" vertex="1">
                    <mxGeometry x="-120" y="1480" width="230" height="30" as="geometry"/>
                </mxCell>
                <mxCell id="134" value="" style="line;strokeWidth=5;html=1;shadow=1;gradientDirection=radial;opacity=50;dashed=1;strokeColor=#FFFFFF;" parent="1" vertex="1">
                    <mxGeometry x="-180" y="2201" width="7700" height="10" as="geometry"/>
                </mxCell>
                <mxCell id="135" value="" style="line;strokeWidth=5;html=1;shadow=1;gradientDirection=radial;opacity=50;dashed=1;strokeColor=#FFFFFF;" parent="1" vertex="1">
                    <mxGeometry x="-380" y="2390" width="8160" height="10" as="geometry"/>
                </mxCell>
                <mxCell id="136" value="" style="line;strokeWidth=5;html=1;shadow=1;gradientDirection=radial;opacity=50;dashed=1;strokeColor=#FFFFFF;" parent="1" vertex="1">
                    <mxGeometry x="-610" y="2598" width="8600" height="10" as="geometry"/>
                </mxCell>
                <mxCell id="138" value="" style="line;strokeWidth=5;html=1;shadow=1;gradientDirection=radial;opacity=50;dashed=1;" parent="1" vertex="1">
                    <mxGeometry x="-780" y="2830" width="9020" height="10" as="geometry"/>
                </mxCell>
                <mxCell id="139" value="if phonenumber throws an error" style="label;fontStyle=0;strokeColor=none;fillColor=none;align=left;verticalAlign=top;overflow=hidden;spacingLeft=28;spacingRight=4;rotatable=0;points=[[0,0.5],[1,0.5]];portConstraint=eastwest;imageWidth=16;imageHeight=16;image=img/clipart/Gear_128x128.png;opacity=40;fontColor=#FFFFFF;" parent="1" vertex="1">
                    <mxGeometry x="-390" y="2400" width="210" height="30" as="geometry"/>
                </mxCell>
                <mxCell id="140" value="if phonenumber  does not throw Error" style="label;fontStyle=0;strokeColor=none;fillColor=none;align=left;verticalAlign=top;overflow=hidden;spacingLeft=28;spacingRight=4;rotatable=0;points=[[0,0.5],[1,0.5]];portConstraint=eastwest;imageWidth=16;imageHeight=16;image=img/clipart/Gear_128x128.png;opacity=40;fontColor=#FFFFFF;" parent="1" vertex="1">
                    <mxGeometry x="-330" y="1400" width="240" height="30" as="geometry"/>
                </mxCell>
                <mxCell id="141" value="if emailAddress throws an error" style="label;fontStyle=0;strokeColor=none;fillColor=none;align=left;verticalAlign=top;overflow=hidden;spacingLeft=28;spacingRight=4;rotatable=0;points=[[0,0.5],[1,0.5]];portConstraint=eastwest;imageWidth=16;imageHeight=16;image=img/clipart/Gear_128x128.png;opacity=40;fontColor=#FFFFFF;" parent="1" vertex="1">
                    <mxGeometry x="-180" y="2211" width="210" height="30" as="geometry"/>
                </mxCell>
                <mxCell id="142" value="if userAccountProfileId throws an error" style="label;fontStyle=0;strokeColor=none;fillColor=none;align=left;verticalAlign=top;overflow=hidden;spacingLeft=28;spacingRight=4;rotatable=0;points=[[0,0.5],[1,0.5]];portConstraint=eastwest;imageWidth=16;imageHeight=16;image=img/clipart/Gear_128x128.png;opacity=40;fontColor=#FFFFFF;" parent="1" vertex="1">
                    <mxGeometry x="-620" y="2608" width="240" height="30" as="geometry"/>
                </mxCell>
                <mxCell id="143" value="if userAccountId throws an error" style="label;fontStyle=0;strokeColor=none;fillColor=none;align=left;verticalAlign=top;overflow=hidden;spacingLeft=28;spacingRight=4;rotatable=0;points=[[0,0.5],[1,0.5]];portConstraint=eastwest;imageWidth=16;imageHeight=16;image=img/clipart/Gear_128x128.png;opacity=40;" parent="1" vertex="1">
                    <mxGeometry x="-790" y="2840" width="240" height="30" as="geometry"/>
                </mxCell>
                <mxCell id="173" value="phoneNumberValidator" style="shape=umlLifeline;perimeter=lifelinePerimeter;whiteSpace=wrap;html=1;container=1;dropTarget=0;collapsible=0;recursiveResize=0;outlineConnect=0;portConstraint=eastwest;newEdgeStyle={&quot;curved&quot;:0,&quot;rounded&quot;:0};fillColor=#f8cecc;strokeColor=#000000;" parent="1" vertex="1">
                    <mxGeometry x="1470" y="21" width="200" height="3689" as="geometry"/>
                </mxCell>
                <mxCell id="174" value="" style="html=1;points=[[0,0,0,0,5],[0,1,0,0,-5],[1,0,0,0,5],[1,1,0,0,-5]];perimeter=orthogonalPerimeter;outlineConnect=0;targetShapes=umlLifeline;portConstraint=eastwest;newEdgeStyle={&quot;curved&quot;:0,&quot;rounded&quot;:0};fillColor=#f8cecc;strokeColor=#b85450;" parent="173" vertex="1">
                    <mxGeometry x="95" y="100" width="10" height="3530" as="geometry"/>
                </mxCell>
                <mxCell id="180" value="if phonenumber Validator returns True" style="label;fontStyle=0;strokeColor=none;fillColor=none;align=left;verticalAlign=top;overflow=hidden;spacingLeft=28;spacingRight=4;rotatable=0;points=[[0,0.5],[1,0.5]];portConstraint=eastwest;imageWidth=16;imageHeight=16;image=img/clipart/Gear_128x128.png;opacity=40;" parent="1" vertex="1">
                    <mxGeometry x="-900" y="780" width="270" height="30" as="geometry"/>
                </mxCell>
                <mxCell id="182" value="" style="line;strokeWidth=5;html=1;shadow=1;gradientDirection=radial;opacity=50;dashed=1;" parent="1" vertex="1">
                    <mxGeometry x="-930" y="3070" width="9400" height="10" as="geometry"/>
                </mxCell>
                <mxCell id="0sKXGP65VLch3woQKcrV-191" value=":ISO&amp;amp;ITURepository" style="shape=umlLifeline;perimeter=lifelinePerimeter;whiteSpace=wrap;html=1;container=1;dropTarget=0;collapsible=0;recursiveResize=0;outlineConnect=0;portConstraint=eastwest;newEdgeStyle={&quot;curved&quot;:0,&quot;rounded&quot;:0};fillColor=#f8cecc;strokeColor=#000000;" parent="1" vertex="1">
                    <mxGeometry x="3470" y="610" width="200" height="3100" as="geometry"/>
                </mxCell>
                <mxCell id="0sKXGP65VLch3woQKcrV-192" value="" style="html=1;points=[[0,0,0,0,5],[0,1,0,0,-5],[1,0,0,0,5],[1,1,0,0,-5]];perimeter=orthogonalPerimeter;outlineConnect=0;targetShapes=umlLifeline;portConstraint=eastwest;newEdgeStyle={&quot;curved&quot;:0,&quot;rounded&quot;:0};fillColor=#f8cecc;strokeColor=#b85450;" parent="0sKXGP65VLch3woQKcrV-191" vertex="1">
                    <mxGeometry x="95" y="80" width="10" height="2950" as="geometry"/>
                </mxCell>
                <mxCell id="0sKXGP65VLch3woQKcrV-193" value=":AccessRuleRepository" style="shape=umlLifeline;perimeter=lifelinePerimeter;whiteSpace=wrap;html=1;container=1;dropTarget=0;collapsible=0;recursiveResize=0;outlineConnect=0;portConstraint=eastwest;newEdgeStyle={&quot;curved&quot;:0,&quot;rounded&quot;:0};fillColor=#f8cecc;strokeColor=#000000;" parent="1" vertex="1">
                    <mxGeometry x="3090" y="520" width="200" height="3190" as="geometry"/>
                </mxCell>
                <mxCell id="0sKXGP65VLch3woQKcrV-194" value="" style="html=1;points=[[0,0,0,0,5],[0,1,0,0,-5],[1,0,0,0,5],[1,1,0,0,-5]];perimeter=orthogonalPerimeter;outlineConnect=0;targetShapes=umlLifeline;portConstraint=eastwest;newEdgeStyle={&quot;curved&quot;:0,&quot;rounded&quot;:0};fillColor=#f8cecc;strokeColor=#b85450;" parent="0sKXGP65VLch3woQKcrV-193" vertex="1">
                    <mxGeometry x="95" y="80" width="10" height="3040" as="geometry"/>
                </mxCell>
                <mxCell id="15" value="DomainSubscriber:&lt;br style=&quot;border-color: var(--border-color);&quot;&gt;eventStoreDelegate" style="shape=umlLifeline;perimeter=lifelinePerimeter;whiteSpace=wrap;html=1;container=1;dropTarget=0;collapsible=0;recursiveResize=0;outlineConnect=0;portConstraint=eastwest;newEdgeStyle={&quot;curved&quot;:0,&quot;rounded&quot;:0};fillColor=#dae8fc;strokeColor=#000000;size=39;" parent="1" vertex="1">
                    <mxGeometry x="5000" y="1060" width="200" height="2599" as="geometry"/>
                </mxCell>
                <mxCell id="16" value="" style="html=1;points=[[0,0,0,0,5],[0,1,0,0,-5],[1,0,0,0,5],[1,1,0,0,-5]];perimeter=orthogonalPerimeter;outlineConnect=0;targetShapes=umlLifeline;portConstraint=eastwest;newEdgeStyle={&quot;curved&quot;:0,&quot;rounded&quot;:0};fillColor=#dae8fc;strokeColor=#6c8ebf;" parent="15" vertex="1">
                    <mxGeometry x="95" y="100" width="10" height="2430" as="geometry"/>
                </mxCell>
                <mxCell id="0sKXGP65VLch3woQKcrV-212" value=":AccessRules" style="shape=umlLifeline;perimeter=lifelinePerimeter;whiteSpace=wrap;html=1;container=1;dropTarget=0;collapsible=0;recursiveResize=0;outlineConnect=0;portConstraint=eastwest;newEdgeStyle={&quot;curved&quot;:0,&quot;rounded&quot;:0};fillColor=#d5e8d4;strokeColor=#000000;" parent="1" vertex="1">
                    <mxGeometry x="3850" y="820" width="200" height="3000" as="geometry"/>
                </mxCell>
                <mxCell id="0sKXGP65VLch3woQKcrV-213" value="" style="html=1;points=[[0,0,0,0,5],[0,1,0,0,-5],[1,0,0,0,5],[1,1,0,0,-5]];perimeter=orthogonalPerimeter;outlineConnect=0;targetShapes=umlLifeline;portConstraint=eastwest;newEdgeStyle={&quot;curved&quot;:0,&quot;rounded&quot;:0};fillColor=#d5e8d4;strokeColor=#82b366;" parent="0sKXGP65VLch3woQKcrV-212" vertex="1">
                    <mxGeometry x="95" y="70" width="10" height="2850" as="geometry"/>
                </mxCell>
                <mxCell id="0sKXGP65VLch3woQKcrV-214" value=":ISO&amp;amp;ITUSpec" style="shape=umlLifeline;perimeter=lifelinePerimeter;whiteSpace=wrap;html=1;container=1;dropTarget=0;collapsible=0;recursiveResize=0;outlineConnect=0;portConstraint=eastwest;newEdgeStyle={&quot;curved&quot;:0,&quot;rounded&quot;:0};fillColor=#d5e8d4;strokeColor=#000000;" parent="1" vertex="1">
                    <mxGeometry x="4220" y="940.5" width="200" height="2940" as="geometry"/>
                </mxCell>
                <mxCell id="0sKXGP65VLch3woQKcrV-215" value="" style="html=1;points=[[0,0,0,0,5],[0,1,0,0,-5],[1,0,0,0,5],[1,1,0,0,-5]];perimeter=orthogonalPerimeter;outlineConnect=0;targetShapes=umlLifeline;portConstraint=eastwest;newEdgeStyle={&quot;curved&quot;:0,&quot;rounded&quot;:0};fillColor=#d5e8d4;strokeColor=#82b366;" parent="0sKXGP65VLch3woQKcrV-214" vertex="1">
                    <mxGeometry x="95" y="70" width="10" height="2770" as="geometry"/>
                </mxCell>
                <mxCell id="0sKXGP65VLch3woQKcrV-216" value=":domainEventPublisher" style="shape=umlLifeline;perimeter=lifelinePerimeter;whiteSpace=wrap;html=1;container=1;dropTarget=0;collapsible=0;recursiveResize=0;outlineConnect=0;portConstraint=eastwest;newEdgeStyle={&quot;curved&quot;:0,&quot;rounded&quot;:0};fillColor=#d5e8d4;strokeColor=#000000;" parent="1" vertex="1">
                    <mxGeometry x="4630" y="1020" width="200" height="2760" as="geometry"/>
                </mxCell>
                <mxCell id="0sKXGP65VLch3woQKcrV-217" value="" style="html=1;points=[[0,0,0,0,5],[0,1,0,0,-5],[1,0,0,0,5],[1,1,0,0,-5]];perimeter=orthogonalPerimeter;outlineConnect=0;targetShapes=umlLifeline;portConstraint=eastwest;newEdgeStyle={&quot;curved&quot;:0,&quot;rounded&quot;:0};fillColor=#d5e8d4;strokeColor=#82b366;" parent="0sKXGP65VLch3woQKcrV-216" vertex="1">
                    <mxGeometry x="95" y="70" width="10" height="2630" as="geometry"/>
                </mxCell>
                <mxCell id="0sKXGP65VLch3woQKcrV-218" value=":NewUserAccountProfileCommand" style="shape=umlLifeline;perimeter=lifelinePerimeter;whiteSpace=wrap;html=1;container=1;dropTarget=0;collapsible=0;recursiveResize=0;outlineConnect=0;portConstraint=eastwest;newEdgeStyle={&quot;curved&quot;:0,&quot;rounded&quot;:0};fillColor=#dae8fc;strokeColor=#000000;size=39;" parent="1" vertex="1">
                    <mxGeometry x="1870" y="201" width="200" height="3509" as="geometry"/>
                </mxCell>
                <mxCell id="0sKXGP65VLch3woQKcrV-219" value="" style="html=1;points=[[0,0,0,0,5],[0,1,0,0,-5],[1,0,0,0,5],[1,1,0,0,-5]];perimeter=orthogonalPerimeter;outlineConnect=0;targetShapes=umlLifeline;portConstraint=eastwest;newEdgeStyle={&quot;curved&quot;:0,&quot;rounded&quot;:0};fillColor=#dae8fc;strokeColor=#6c8ebf;" parent="0sKXGP65VLch3woQKcrV-218" vertex="1">
                    <mxGeometry x="95" y="100" width="10" height="3370" as="geometry"/>
                </mxCell>
                <mxCell id="0sKXGP65VLch3woQKcrV-220" value="NewDomainEvent" style="shape=umlLifeline;perimeter=lifelinePerimeter;whiteSpace=wrap;html=1;container=1;dropTarget=0;collapsible=0;recursiveResize=0;outlineConnect=0;portConstraint=eastwest;newEdgeStyle={&quot;curved&quot;:0,&quot;rounded&quot;:0};fillColor=#d5e8d4;strokeColor=#000000;" parent="1" vertex="1">
                    <mxGeometry x="7140" y="1579" width="200" height="2080" as="geometry"/>
                </mxCell>
                <mxCell id="0sKXGP65VLch3woQKcrV-221" value="" style="html=1;points=[[0,0,0,0,5],[0,1,0,0,-5],[1,0,0,0,5],[1,1,0,0,-5]];perimeter=orthogonalPerimeter;outlineConnect=0;targetShapes=umlLifeline;portConstraint=eastwest;newEdgeStyle={&quot;curved&quot;:0,&quot;rounded&quot;:0};fillColor=#d5e8d4;strokeColor=#82b366;" parent="0sKXGP65VLch3woQKcrV-220" vertex="1">
                    <mxGeometry x="95" y="60" width="10" height="1940" as="geometry"/>
                </mxCell>
                <mxCell id="0sKXGP65VLch3woQKcrV-223" style="edgeStyle=orthogonalEdgeStyle;rounded=0;orthogonalLoop=1;jettySize=auto;html=1;curved=0;entryX=0;entryY=0.008;entryDx=0;entryDy=0;entryPerimeter=0;exitX=1;exitY=0.034;exitDx=0;exitDy=0;exitPerimeter=0;" parent="1" source="10" target="0sKXGP65VLch3woQKcrV-218" edge="1">
                    <mxGeometry relative="1" as="geometry">
                        <Array as="points">
                            <mxPoint x="450" y="228"/>
                        </Array>
                        <mxPoint x="450" y="201.05882352941217" as="sourcePoint"/>
                        <mxPoint x="725" y="201.05882352941217" as="targetPoint"/>
                    </mxGeometry>
                </mxCell>
                <mxCell id="0sKXGP65VLch3woQKcrV-224" value="create():void" style="edgeLabel;html=1;align=center;verticalAlign=middle;resizable=0;points=[];" parent="0sKXGP65VLch3woQKcrV-223" connectable="0" vertex="1">
                    <mxGeometry x="-0.1654" y="3" relative="1" as="geometry">
                        <mxPoint as="offset"/>
                    </mxGeometry>
                </mxCell>
                <mxCell id="0sKXGP65VLch3woQKcrV-227" style="edgeStyle=orthogonalEdgeStyle;rounded=0;orthogonalLoop=1;jettySize=auto;html=1;curved=0;entryX=-0.65;entryY=0.046;entryDx=0;entryDy=0;entryPerimeter=0;exitX=1.55;exitY=0.046;exitDx=0;exitDy=0;exitPerimeter=0;" parent="1" source="10" target="19" edge="1">
                    <mxGeometry relative="1" as="geometry">
                        <Array as="points"/>
                        <mxPoint x="460" y="269.9988235294117" as="sourcePoint"/>
                        <mxPoint x="735" y="269.9988235294117" as="targetPoint"/>
                    </mxGeometry>
                </mxCell>
                <mxCell id="0sKXGP65VLch3woQKcrV-228" value="createUserAccount(&lt;br&gt;fNewUsrAccountProfileCommand&lt;br&gt;):void" style="edgeLabel;html=1;align=center;verticalAlign=middle;resizable=0;points=[];" parent="0sKXGP65VLch3woQKcrV-227" connectable="0" vertex="1">
                    <mxGeometry x="-0.1654" y="3" relative="1" as="geometry">
                        <mxPoint as="offset"/>
                    </mxGeometry>
                </mxCell>
                <mxCell id="0sKXGP65VLch3woQKcrV-231" style="edgeStyle=orthogonalEdgeStyle;rounded=0;orthogonalLoop=1;jettySize=auto;html=1;curved=0;entryX=-0.3;entryY=0.06;entryDx=0;entryDy=0;entryPerimeter=0;" parent="1" target="4" edge="1">
                    <mxGeometry relative="1" as="geometry">
                        <Array as="points"/>
                        <mxPoint x="850" y="320.9988235294117" as="sourcePoint"/>
                        <mxPoint x="1125" y="320.9988235294117" as="targetPoint"/>
                    </mxGeometry>
                </mxCell>
                <mxCell id="0sKXGP65VLch3woQKcrV-232" value="getRepositories(&lt;br&gt;&quot;userAccountProfile&quot;,&quot;eventStore&quot;, &lt;br&gt;&quot;accessRules&quot;, &quot;ISO&amp;amp;ITOSpec&quot;&lt;br&gt;)" style="edgeLabel;html=1;align=center;verticalAlign=middle;resizable=0;points=[];" parent="0sKXGP65VLch3woQKcrV-231" connectable="0" vertex="1">
                    <mxGeometry x="-0.1654" y="3" relative="1" as="geometry">
                        <mxPoint as="offset"/>
                    </mxGeometry>
                </mxCell>
                <mxCell id="0sKXGP65VLch3woQKcrV-237" style="edgeStyle=orthogonalEdgeStyle;rounded=0;orthogonalLoop=1;jettySize=auto;html=1;curved=0;entryX=-0.05;entryY=0.477;entryDx=0;entryDy=0;entryPerimeter=0;" parent="1" target="36" edge="1">
                    <mxGeometry relative="1" as="geometry">
                        <Array as="points">
                            <mxPoint x="2374" y="1960"/>
                        </Array>
                        <mxPoint x="860" y="1960.0488235294117" as="sourcePoint"/>
                        <mxPoint x="1135" y="1960.0488235294117" as="targetPoint"/>
                    </mxGeometry>
                </mxCell>
                <mxCell id="0sKXGP65VLch3woQKcrV-238" value="commit():vooid" style="edgeLabel;html=1;align=center;verticalAlign=middle;resizable=0;points=[];" parent="0sKXGP65VLch3woQKcrV-237" connectable="0" vertex="1">
                    <mxGeometry x="-0.1654" y="3" relative="1" as="geometry">
                        <mxPoint as="offset"/>
                    </mxGeometry>
                </mxCell>
                <mxCell id="0sKXGP65VLch3woQKcrV-239" style="edgeStyle=orthogonalEdgeStyle;rounded=0;orthogonalLoop=1;jettySize=auto;html=1;curved=0;entryX=-0.016;entryY=0.009;entryDx=0;entryDy=0;entryPerimeter=0;exitX=1.5;exitY=0.071;exitDx=0;exitDy=0;exitPerimeter=0;" parent="1" source="4" target="35" edge="1">
                    <mxGeometry relative="1" as="geometry">
                        <Array as="points"/>
                        <mxPoint x="1237" y="359.9988235294117" as="sourcePoint"/>
                        <mxPoint x="1512" y="359.9988235294117" as="targetPoint"/>
                    </mxGeometry>
                </mxCell>
                <mxCell id="0sKXGP65VLch3woQKcrV-240" value="create():void" style="edgeLabel;html=1;align=center;verticalAlign=middle;resizable=0;points=[];" parent="0sKXGP65VLch3woQKcrV-239" connectable="0" vertex="1">
                    <mxGeometry x="-0.1654" y="3" relative="1" as="geometry">
                        <mxPoint as="offset"/>
                    </mxGeometry>
                </mxCell>
                <mxCell id="0sKXGP65VLch3woQKcrV-241" style="edgeStyle=orthogonalEdgeStyle;rounded=0;orthogonalLoop=1;jettySize=auto;html=1;curved=0;entryX=0.013;entryY=0.007;entryDx=0;entryDy=0;entryPerimeter=0;exitX=0.968;exitY=0.099;exitDx=0;exitDy=0;exitPerimeter=0;" parent="1" source="4" target="54" edge="1">
                    <mxGeometry relative="1" as="geometry">
                        <Array as="points">
                            <mxPoint x="1220" y="458"/>
                            <mxPoint x="1220" y="461"/>
                        </Array>
                        <mxPoint x="1220" y="430.0588235294117" as="sourcePoint"/>
                        <mxPoint x="1495" y="430.0588235294117" as="targetPoint"/>
                    </mxGeometry>
                </mxCell>
                <mxCell id="0sKXGP65VLch3woQKcrV-242" value="create():void" style="edgeLabel;html=1;align=center;verticalAlign=middle;resizable=0;points=[];" parent="0sKXGP65VLch3woQKcrV-241" connectable="0" vertex="1">
                    <mxGeometry x="-0.1654" y="3" relative="1" as="geometry">
                        <mxPoint as="offset"/>
                    </mxGeometry>
                </mxCell>
                <mxCell id="0sKXGP65VLch3woQKcrV-243" style="edgeStyle=orthogonalEdgeStyle;rounded=0;orthogonalLoop=1;jettySize=auto;html=1;curved=0;entryX=0;entryY=0.006;entryDx=0;entryDy=0;entryPerimeter=0;exitX=1.474;exitY=0.122;exitDx=0;exitDy=0;exitPerimeter=0;" parent="1" source="4" target="0sKXGP65VLch3woQKcrV-193" edge="1">
                    <mxGeometry relative="1" as="geometry">
                        <Array as="points"/>
                        <mxPoint x="1260" y="544" as="sourcePoint"/>
                        <mxPoint x="1525" y="544.0088235294118" as="targetPoint"/>
                    </mxGeometry>
                </mxCell>
                <mxCell id="0sKXGP65VLch3woQKcrV-244" value="create():void" style="edgeLabel;html=1;align=center;verticalAlign=middle;resizable=0;points=[];" parent="0sKXGP65VLch3woQKcrV-243" connectable="0" vertex="1">
                    <mxGeometry x="-0.1654" y="3" relative="1" as="geometry">
                        <mxPoint as="offset"/>
                    </mxGeometry>
                </mxCell>
                <mxCell id="0sKXGP65VLch3woQKcrV-245" style="edgeStyle=orthogonalEdgeStyle;rounded=0;orthogonalLoop=1;jettySize=auto;html=1;curved=0;entryX=0;entryY=0.006;entryDx=0;entryDy=0;entryPerimeter=0;" parent="1" target="0sKXGP65VLch3woQKcrV-191" edge="1">
                    <mxGeometry relative="1" as="geometry">
                        <Array as="points">
                            <mxPoint x="1230" y="629"/>
                        </Array>
                        <mxPoint x="1230" y="630" as="sourcePoint"/>
                        <mxPoint x="1505" y="616.0588235294117" as="targetPoint"/>
                    </mxGeometry>
                </mxCell>
                <mxCell id="0sKXGP65VLch3woQKcrV-246" value="create():void" style="edgeLabel;html=1;align=center;verticalAlign=middle;resizable=0;points=[];" parent="0sKXGP65VLch3woQKcrV-245" connectable="0" vertex="1">
                    <mxGeometry x="-0.1654" y="3" relative="1" as="geometry">
                        <mxPoint as="offset"/>
                    </mxGeometry>
                </mxCell>
                <mxCell id="0sKXGP65VLch3woQKcrV-248" style="edgeStyle=orthogonalEdgeStyle;rounded=0;orthogonalLoop=1;jettySize=auto;html=1;curved=0;entryX=0.5;entryY=0.17;entryDx=0;entryDy=0;entryPerimeter=0;" parent="1" target="174" edge="1">
                    <mxGeometry relative="1" as="geometry">
                        <Array as="points">
                            <mxPoint x="1570" y="721"/>
                        </Array>
                        <mxPoint x="860" y="720.0488235294122" as="sourcePoint"/>
                        <mxPoint x="1135" y="720.0488235294122" as="targetPoint"/>
                    </mxGeometry>
                </mxCell>
                <mxCell id="0sKXGP65VLch3woQKcrV-249" value="isPhoneNumberValid(&quot;Phonenumber&quot;, &quot;countryCode&quot;):boolean" style="edgeLabel;html=1;align=center;verticalAlign=middle;resizable=0;points=[];" parent="0sKXGP65VLch3woQKcrV-248" connectable="0" vertex="1">
                    <mxGeometry x="-0.1654" y="3" relative="1" as="geometry">
                        <mxPoint as="offset"/>
                    </mxGeometry>
                </mxCell>
                <mxCell id="0sKXGP65VLch3woQKcrV-250" style="edgeStyle=none;html=1;curved=0;rounded=0;dashed=1;endArrow=open;endFill=0;exitX=0.5;exitY=0.181;exitDx=0;exitDy=0;exitPerimeter=0;entryX=1.5;entryY=0.185;entryDx=0;entryDy=0;entryPerimeter=0;" parent="1" source="174" target="19" edge="1">
                    <mxGeometry relative="1" as="geometry">
                        <mxPoint x="1294.5" y="760" as="sourcePoint"/>
                        <mxPoint x="930" y="760" as="targetPoint"/>
                        <Array as="points">
                            <mxPoint x="1125" y="760"/>
                        </Array>
                    </mxGeometry>
                </mxCell>
                <mxCell id="0sKXGP65VLch3woQKcrV-251" value="boolean" style="edgeLabel;html=1;align=center;verticalAlign=middle;resizable=0;points=[];" parent="0sKXGP65VLch3woQKcrV-250" vertex="1" connectable="0">
                    <mxGeometry x="0.1773" relative="1" as="geometry">
                        <mxPoint as="offset"/>
                    </mxGeometry>
                </mxCell>
                <mxCell id="0sKXGP65VLch3woQKcrV-252" style="edgeStyle=orthogonalEdgeStyle;rounded=0;orthogonalLoop=1;jettySize=auto;html=1;curved=0;entryX=0.011;entryY=0.067;entryDx=0;entryDy=0;entryPerimeter=0;exitX=1.716;exitY=0.198;exitDx=0;exitDy=0;exitPerimeter=0;" parent="1" source="19" target="0sKXGP65VLch3woQKcrV-194" edge="1">
                    <mxGeometry relative="1" as="geometry">
                        <Array as="points"/>
                        <mxPoint x="870" y="803.0488235294117" as="sourcePoint"/>
                        <mxPoint x="1150" y="803" as="targetPoint"/>
                    </mxGeometry>
                </mxCell>
                <mxCell id="0sKXGP65VLch3woQKcrV-253" value="getDefaultAccessRule():AccessRule" style="edgeLabel;html=1;align=center;verticalAlign=middle;resizable=0;points=[];" parent="0sKXGP65VLch3woQKcrV-252" connectable="0" vertex="1">
                    <mxGeometry x="-0.1654" y="3" relative="1" as="geometry">
                        <mxPoint as="offset"/>
                    </mxGeometry>
                </mxCell>
                <mxCell id="0sKXGP65VLch3woQKcrV-254" style="edgeStyle=none;html=1;curved=0;rounded=0;dashed=1;endArrow=open;endFill=0;exitX=0.5;exitY=0.079;exitDx=0;exitDy=0;exitPerimeter=0;entryX=1.5;entryY=0.208;entryDx=0;entryDy=0;entryPerimeter=0;" parent="1" edge="1">
                    <mxGeometry relative="1" as="geometry">
                        <mxPoint x="3190.000000000001" y="878.1599999999999" as="sourcePoint"/>
                        <mxPoint x="860" y="877.288" as="targetPoint"/>
                        <Array as="points">
                            <mxPoint x="1135" y="879.46"/>
                        </Array>
                    </mxGeometry>
                </mxCell>
                <mxCell id="0sKXGP65VLch3woQKcrV-264" value="AccessRule" style="edgeLabel;html=1;align=center;verticalAlign=middle;resizable=0;points=[];" parent="0sKXGP65VLch3woQKcrV-254" vertex="1" connectable="0">
                    <mxGeometry x="0.053" relative="1" as="geometry">
                        <mxPoint as="offset"/>
                    </mxGeometry>
                </mxCell>
                <mxCell id="0sKXGP65VLch3woQKcrV-256" style="edgeStyle=orthogonalEdgeStyle;rounded=0;orthogonalLoop=1;jettySize=auto;html=1;curved=0;entryX=-0.015;entryY=0.006;entryDx=0;entryDy=0;entryPerimeter=0;exitX=1.5;exitY=0.078;exitDx=0;exitDy=0;exitPerimeter=0;" parent="1" source="0sKXGP65VLch3woQKcrV-194" target="0sKXGP65VLch3woQKcrV-212" edge="1">
                    <mxGeometry relative="1" as="geometry">
                        <Array as="points">
                            <mxPoint x="3200" y="840"/>
                            <mxPoint x="3847" y="840"/>
                        </Array>
                        <mxPoint x="3260" y="840.0488235294117" as="sourcePoint"/>
                        <mxPoint x="3535" y="840.0488235294117" as="targetPoint"/>
                    </mxGeometry>
                </mxCell>
                <mxCell id="0sKXGP65VLch3woQKcrV-257" value="create():void" style="edgeLabel;html=1;align=center;verticalAlign=middle;resizable=0;points=[];" parent="0sKXGP65VLch3woQKcrV-256" connectable="0" vertex="1">
                    <mxGeometry x="-0.1654" y="3" relative="1" as="geometry">
                        <mxPoint as="offset"/>
                    </mxGeometry>
                </mxCell>
                <mxCell id="0sKXGP65VLch3woQKcrV-258" style="edgeStyle=orthogonalEdgeStyle;rounded=0;orthogonalLoop=1;jettySize=auto;html=1;curved=0;entryX=-0.347;entryY=0.079;entryDx=0;entryDy=0;entryPerimeter=0;" parent="1" source="19" target="0sKXGP65VLch3woQKcrV-192" edge="1">
                    <mxGeometry relative="1" as="geometry">
                        <Array as="points">
                            <mxPoint x="3550" y="920"/>
                            <mxPoint x="3550" y="923"/>
                        </Array>
                        <mxPoint x="870" y="920.0488235294117" as="sourcePoint"/>
                        <mxPoint x="1145" y="920.0488235294117" as="targetPoint"/>
                    </mxGeometry>
                </mxCell>
                <mxCell id="0sKXGP65VLch3woQKcrV-259" value="getSpecByCountryCode(&quot;countryCode&quot;):void" style="edgeLabel;html=1;align=center;verticalAlign=middle;resizable=0;points=[];" parent="0sKXGP65VLch3woQKcrV-258" connectable="0" vertex="1">
                    <mxGeometry x="-0.1654" y="3" relative="1" as="geometry">
                        <mxPoint as="offset"/>
                    </mxGeometry>
                </mxCell>
                <mxCell id="0sKXGP65VLch3woQKcrV-260" style="edgeStyle=orthogonalEdgeStyle;rounded=0;orthogonalLoop=1;jettySize=auto;html=1;curved=0;entryX=-0.008;entryY=0.007;entryDx=0;entryDy=0;entryPerimeter=0;exitX=1.547;exitY=0.092;exitDx=0;exitDy=0;exitPerimeter=0;" parent="1" source="0sKXGP65VLch3woQKcrV-192" target="0sKXGP65VLch3woQKcrV-214" edge="1">
                    <mxGeometry relative="1" as="geometry">
                        <Array as="points">
                            <mxPoint x="3640" y="961"/>
                            <mxPoint x="3640" y="963"/>
                            <mxPoint x="3850" y="963"/>
                            <mxPoint x="3850" y="961"/>
                        </Array>
                        <mxPoint x="3203.000000000001" y="959.9999999999999" as="sourcePoint"/>
                        <mxPoint x="3849.999999999999" y="960.8799999999995" as="targetPoint"/>
                    </mxGeometry>
                </mxCell>
                <mxCell id="0sKXGP65VLch3woQKcrV-261" value="create():void" style="edgeLabel;html=1;align=center;verticalAlign=middle;resizable=0;points=[];" parent="0sKXGP65VLch3woQKcrV-260" connectable="0" vertex="1">
                    <mxGeometry x="-0.1654" y="3" relative="1" as="geometry">
                        <mxPoint as="offset"/>
                    </mxGeometry>
                </mxCell>
                <mxCell id="0sKXGP65VLch3woQKcrV-262" style="edgeStyle=none;html=1;curved=0;rounded=0;dashed=1;endArrow=open;endFill=0;exitX=0.5;exitY=0.106;exitDx=0;exitDy=0;exitPerimeter=0;entryX=1.5;entryY=0.254;entryDx=0;entryDy=0;entryPerimeter=0;" parent="1" source="0sKXGP65VLch3woQKcrV-192" target="19" edge="1">
                    <mxGeometry relative="1" as="geometry">
                        <mxPoint x="3545.000000000001" y="1000.8699999999999" as="sourcePoint"/>
                        <mxPoint x="1215" y="999.998" as="targetPoint"/>
                        <Array as="points">
                            <mxPoint x="1490" y="1002.1700000000001"/>
                        </Array>
                    </mxGeometry>
                </mxCell>
                <mxCell id="0sKXGP65VLch3woQKcrV-265" value="ISOAndITUSpec" style="edgeLabel;html=1;align=center;verticalAlign=middle;resizable=0;points=[];" parent="0sKXGP65VLch3woQKcrV-262" vertex="1" connectable="0">
                    <mxGeometry x="0.1889" relative="1" as="geometry">
                        <mxPoint as="offset"/>
                    </mxGeometry>
                </mxCell>
                <mxCell id="0sKXGP65VLch3woQKcrV-266" style="edgeStyle=orthogonalEdgeStyle;rounded=0;orthogonalLoop=1;jettySize=auto;html=1;curved=0;entryX=0.05;entryY=0.007;entryDx=0;entryDy=0;entryPerimeter=0;exitX=1.5;exitY=0.265;exitDx=0;exitDy=0;exitPerimeter=0;" parent="1" source="19" target="0sKXGP65VLch3woQKcrV-216" edge="1">
                    <mxGeometry relative="1" as="geometry">
                        <Array as="points"/>
                        <mxPoint x="870" y="1040.0488235294117" as="sourcePoint"/>
                        <mxPoint x="1145" y="1040.0488235294117" as="targetPoint"/>
                    </mxGeometry>
                </mxCell>
                <mxCell id="0sKXGP65VLch3woQKcrV-267" value="create():void" style="edgeLabel;html=1;align=center;verticalAlign=middle;resizable=0;points=[];" parent="0sKXGP65VLch3woQKcrV-266" connectable="0" vertex="1">
                    <mxGeometry x="-0.1654" y="3" relative="1" as="geometry">
                        <mxPoint as="offset"/>
                    </mxGeometry>
                </mxCell>
                <mxCell id="0sKXGP65VLch3woQKcrV-268" style="edgeStyle=orthogonalEdgeStyle;rounded=0;orthogonalLoop=1;jettySize=auto;html=1;curved=0;entryX=-0.024;entryY=0.007;entryDx=0;entryDy=0;entryPerimeter=0;exitX=1.337;exitY=0.276;exitDx=0;exitDy=0;exitPerimeter=0;" parent="1" source="19" target="15" edge="1">
                    <mxGeometry relative="1" as="geometry">
                        <Array as="points"/>
                        <mxPoint x="870" y="1080.095" as="sourcePoint"/>
                        <mxPoint x="4650" y="1079.9999999999998" as="targetPoint"/>
                    </mxGeometry>
                </mxCell>
                <mxCell id="0sKXGP65VLch3woQKcrV-269" value="create():void" style="edgeLabel;html=1;align=center;verticalAlign=middle;resizable=0;points=[];" parent="0sKXGP65VLch3woQKcrV-268" connectable="0" vertex="1">
                    <mxGeometry x="-0.1654" y="3" relative="1" as="geometry">
                        <mxPoint as="offset"/>
                    </mxGeometry>
                </mxCell>
                <mxCell id="0sKXGP65VLch3woQKcrV-270" style="edgeStyle=orthogonalEdgeStyle;rounded=0;orthogonalLoop=1;jettySize=auto;html=1;curved=0;exitX=1.5;exitY=0.288;exitDx=0;exitDy=0;exitPerimeter=0;entryX=-0.263;entryY=0.011;entryDx=0;entryDy=0;entryPerimeter=0;" parent="1" source="19" target="0sKXGP65VLch3woQKcrV-217" edge="1">
                    <mxGeometry relative="1" as="geometry">
                        <Array as="points"/>
                        <mxPoint x="880" y="1120.0988235294114" as="sourcePoint"/>
                        <mxPoint x="1155" y="1120.0988235294114" as="targetPoint"/>
                    </mxGeometry>
                </mxCell>
                <mxCell id="0sKXGP65VLch3woQKcrV-271" value="registerSubscriber(subscriber):void" style="edgeLabel;html=1;align=center;verticalAlign=middle;resizable=0;points=[];" parent="0sKXGP65VLch3woQKcrV-270" connectable="0" vertex="1">
                    <mxGeometry x="-0.1654" y="3" relative="1" as="geometry">
                        <mxPoint as="offset"/>
                    </mxGeometry>
                </mxCell>
                <mxCell id="0sKXGP65VLch3woQKcrV-272" style="edgeStyle=none;html=1;curved=0;rounded=0;dashed=1;endArrow=open;endFill=0;exitX=0.5;exitY=0.026;exitDx=0;exitDy=0;exitPerimeter=0;entryX=1.211;entryY=0.299;entryDx=0;entryDy=0;entryPerimeter=0;" parent="1" source="0sKXGP65VLch3woQKcrV-217" target="19" edge="1">
                    <mxGeometry relative="1" as="geometry">
                        <mxPoint x="3580.000000000001" y="1159.9999999999998" as="sourcePoint"/>
                        <mxPoint x="870" y="1158.0939999999998" as="targetPoint"/>
                        <Array as="points">
                            <mxPoint x="1500" y="1159.47"/>
                        </Array>
                    </mxGeometry>
                </mxCell>
                <mxCell id="0sKXGP65VLch3woQKcrV-274" style="edgeStyle=orthogonalEdgeStyle;rounded=0;orthogonalLoop=1;jettySize=auto;html=1;curved=0;exitX=0.5;exitY=0.311;exitDx=0;exitDy=0;exitPerimeter=0;" parent="1" source="19" edge="1">
                    <mxGeometry relative="1" as="geometry">
                        <Array as="points">
                            <mxPoint x="5411" y="1201"/>
                        </Array>
                        <mxPoint x="860" y="1200.0988235294114" as="sourcePoint"/>
                        <mxPoint x="5420" y="1201" as="targetPoint"/>
                    </mxGeometry>
                </mxCell>
                <mxCell id="0sKXGP65VLch3woQKcrV-275" value="create():void" style="edgeLabel;html=1;align=center;verticalAlign=middle;resizable=0;points=[];" parent="0sKXGP65VLch3woQKcrV-274" connectable="0" vertex="1">
                    <mxGeometry x="-0.1654" y="3" relative="1" as="geometry">
                        <mxPoint as="offset"/>
                    </mxGeometry>
                </mxCell>
                <mxCell id="0sKXGP65VLch3woQKcrV-276" value="create()" style="edgeLabel;html=1;align=center;verticalAlign=middle;resizable=0;points=[];" parent="0sKXGP65VLch3woQKcrV-274" vertex="1" connectable="0">
                    <mxGeometry x="0.3174" y="2" relative="1" as="geometry">
                        <mxPoint as="offset"/>
                    </mxGeometry>
                </mxCell>
                <mxCell id="0sKXGP65VLch3woQKcrV-277" style="edgeStyle=orthogonalEdgeStyle;rounded=0;orthogonalLoop=1;jettySize=auto;html=1;curved=0;entryX=-0.016;entryY=0.008;entryDx=0;entryDy=0;entryPerimeter=0;exitX=1.5;exitY=0.333;exitDx=0;exitDy=0;exitPerimeter=0;" parent="1" source="19" target="108" edge="1">
                    <mxGeometry relative="1" as="geometry">
                        <Array as="points">
                            <mxPoint x="900" y="1278"/>
                        </Array>
                        <mxPoint x="880" y="1280.0488235294117" as="sourcePoint"/>
                        <mxPoint x="1155" y="1280.0488235294117" as="targetPoint"/>
                    </mxGeometry>
                </mxCell>
                <mxCell id="0sKXGP65VLch3woQKcrV-278" value="create()" style="edgeLabel;html=1;align=center;verticalAlign=middle;resizable=0;points=[];" parent="0sKXGP65VLch3woQKcrV-277" connectable="0" vertex="1">
                    <mxGeometry x="-0.1654" y="3" relative="1" as="geometry">
                        <mxPoint as="offset"/>
                    </mxGeometry>
                </mxCell>
                <mxCell id="0sKXGP65VLch3woQKcrV-279" style="edgeStyle=orthogonalEdgeStyle;rounded=0;orthogonalLoop=1;jettySize=auto;html=1;curved=0;entryX=0.008;entryY=0.009;entryDx=0;entryDy=0;entryPerimeter=0;exitX=1.5;exitY=0.357;exitDx=0;exitDy=0;exitPerimeter=0;" parent="1" source="19" target="120" edge="1">
                    <mxGeometry relative="1" as="geometry">
                        <Array as="points">
                            <mxPoint x="860" y="1360"/>
                            <mxPoint x="6082" y="1360"/>
                        </Array>
                        <mxPoint x="880" y="1360.0988235294114" as="sourcePoint"/>
                        <mxPoint x="1155" y="1360.0988235294114" as="targetPoint"/>
                    </mxGeometry>
                </mxCell>
                <mxCell id="0sKXGP65VLch3woQKcrV-280" value="create():void" style="edgeLabel;html=1;align=center;verticalAlign=middle;resizable=0;points=[];" parent="0sKXGP65VLch3woQKcrV-279" connectable="0" vertex="1">
                    <mxGeometry x="-0.1654" y="3" relative="1" as="geometry">
                        <mxPoint as="offset"/>
                    </mxGeometry>
                </mxCell>
                <mxCell id="0sKXGP65VLch3woQKcrV-281" style="edgeStyle=orthogonalEdgeStyle;rounded=0;orthogonalLoop=1;jettySize=auto;html=1;curved=0;exitX=0.832;exitY=0.379;exitDx=0;exitDy=0;exitPerimeter=0;" parent="1" source="19" edge="1">
                    <mxGeometry relative="1" as="geometry">
                        <Array as="points"/>
                        <mxPoint x="890" y="1440.0988235294114" as="sourcePoint"/>
                        <mxPoint x="6420" y="1440" as="targetPoint"/>
                    </mxGeometry>
                </mxCell>
                <mxCell id="0sKXGP65VLch3woQKcrV-282" value="create():void" style="edgeLabel;html=1;align=center;verticalAlign=middle;resizable=0;points=[];" parent="0sKXGP65VLch3woQKcrV-281" connectable="0" vertex="1">
                    <mxGeometry x="-0.1654" y="3" relative="1" as="geometry">
                        <mxPoint as="offset"/>
                    </mxGeometry>
                </mxCell>
                <mxCell id="0sKXGP65VLch3woQKcrV-283" style="edgeStyle=orthogonalEdgeStyle;rounded=0;orthogonalLoop=1;jettySize=auto;html=1;curved=0;entryX=0;entryY=0.009;entryDx=0;entryDy=0;entryPerimeter=0;exitX=1.084;exitY=0.403;exitDx=0;exitDy=0;exitPerimeter=0;" parent="1" source="19" target="85" edge="1">
                    <mxGeometry relative="1" as="geometry">
                        <Array as="points">
                            <mxPoint x="856" y="1520"/>
                        </Array>
                        <mxPoint x="890" y="1520.0988235294114" as="sourcePoint"/>
                        <mxPoint x="1165" y="1520.0988235294114" as="targetPoint"/>
                    </mxGeometry>
                </mxCell>
                <mxCell id="0sKXGP65VLch3woQKcrV-284" value="create():void" style="edgeLabel;html=1;align=center;verticalAlign=middle;resizable=0;points=[];" parent="0sKXGP65VLch3woQKcrV-283" connectable="0" vertex="1">
                    <mxGeometry x="-0.1654" y="3" relative="1" as="geometry">
                        <mxPoint as="offset"/>
                    </mxGeometry>
                </mxCell>
                <mxCell id="0sKXGP65VLch3woQKcrV-285" style="edgeStyle=orthogonalEdgeStyle;rounded=0;orthogonalLoop=1;jettySize=auto;html=1;curved=0;entryX=0;entryY=0;entryDx=0;entryDy=5;entryPerimeter=0;exitX=1.5;exitY=0.413;exitDx=0;exitDy=0;exitPerimeter=0;" parent="1" source="19" target="87" edge="1">
                    <mxGeometry relative="1" as="geometry">
                        <Array as="points">
                            <mxPoint x="6850" y="1560"/>
                            <mxPoint x="6850" y="1565"/>
                        </Array>
                        <mxPoint x="870" y="1560.0988235294114" as="sourcePoint"/>
                        <mxPoint x="1145" y="1560.0988235294114" as="targetPoint"/>
                    </mxGeometry>
                </mxCell>
                <mxCell id="0sKXGP65VLch3woQKcrV-286" value="publishNewUserAccountProfileCreatedEvent(domainEventPublisher):void" style="edgeLabel;html=1;align=center;verticalAlign=middle;resizable=0;points=[];" parent="0sKXGP65VLch3woQKcrV-285" connectable="0" vertex="1">
                    <mxGeometry x="-0.1654" y="3" relative="1" as="geometry">
                        <mxPoint as="offset"/>
                    </mxGeometry>
                </mxCell>
                <mxCell id="0sKXGP65VLch3woQKcrV-287" style="edgeStyle=orthogonalEdgeStyle;rounded=0;orthogonalLoop=1;jettySize=auto;html=1;curved=0;exitX=1.126;exitY=0.225;exitDx=0;exitDy=0;exitPerimeter=0;entryX=0.5;entryY=0.214;entryDx=0;entryDy=0;entryPerimeter=0;" parent="1" source="0sKXGP65VLch3woQKcrV-217" target="16" edge="1">
                    <mxGeometry relative="1" as="geometry">
                        <Array as="points">
                            <mxPoint x="4736" y="1680"/>
                        </Array>
                        <mxPoint x="4790" y="1679.9988235294115" as="sourcePoint"/>
                        <mxPoint x="5065" y="1679.9988235294115" as="targetPoint"/>
                    </mxGeometry>
                </mxCell>
                <mxCell id="0sKXGP65VLch3woQKcrV-288" value="handle(&lt;br&gt;NewUserAccountProfileCreated&lt;br&gt;):void" style="edgeLabel;html=1;align=center;verticalAlign=middle;resizable=0;points=[];" parent="0sKXGP65VLch3woQKcrV-287" connectable="0" vertex="1">
                    <mxGeometry x="-0.1654" y="3" relative="1" as="geometry">
                        <mxPoint as="offset"/>
                    </mxGeometry>
                </mxCell>
                <mxCell id="0sKXGP65VLch3woQKcrV-289" style="edgeStyle=orthogonalEdgeStyle;rounded=0;orthogonalLoop=1;jettySize=auto;html=1;curved=0;entryX=0;entryY=0.01;entryDx=0;entryDy=0;entryPerimeter=0;exitX=0.832;exitY=0.019;exitDx=0;exitDy=0;exitPerimeter=0;" parent="1" source="87" target="0sKXGP65VLch3woQKcrV-220" edge="1">
                    <mxGeometry relative="1" as="geometry">
                        <Array as="points"/>
                        <mxPoint x="6860" y="1600.0988235294117" as="sourcePoint"/>
                        <mxPoint x="7135" y="1600.0988235294117" as="targetPoint"/>
                    </mxGeometry>
                </mxCell>
                <mxCell id="0sKXGP65VLch3woQKcrV-290" value="create():void" style="edgeLabel;html=1;align=center;verticalAlign=middle;resizable=0;points=[];" parent="0sKXGP65VLch3woQKcrV-289" connectable="0" vertex="1">
                    <mxGeometry x="-0.1654" y="3" relative="1" as="geometry">
                        <mxPoint as="offset"/>
                    </mxGeometry>
                </mxCell>
                <mxCell id="0sKXGP65VLch3woQKcrV-295" style="edgeStyle=orthogonalEdgeStyle;rounded=0;orthogonalLoop=1;jettySize=auto;html=1;curved=0;exitX=0.5;exitY=0.039;exitDx=0;exitDy=0;exitPerimeter=0;entryX=1.5;entryY=0.209;entryDx=0;entryDy=0;entryPerimeter=0;" parent="1" source="87" target="0sKXGP65VLch3woQKcrV-217" edge="1">
                    <mxGeometry relative="1" as="geometry">
                        <Array as="points"/>
                        <mxPoint x="6825" y="1640.0488235294117" as="sourcePoint"/>
                        <mxPoint x="6550" y="1640.0488235294117" as="targetPoint"/>
                    </mxGeometry>
                </mxCell>
                <mxCell id="0sKXGP65VLch3woQKcrV-296" value="publish(NewUserAccountProfileCreatedf):void" style="edgeLabel;html=1;align=center;verticalAlign=middle;resizable=0;points=[];" parent="0sKXGP65VLch3woQKcrV-295" connectable="0" vertex="1">
                    <mxGeometry x="-0.1654" y="3" relative="1" as="geometry">
                        <mxPoint as="offset"/>
                    </mxGeometry>
                </mxCell>
                <mxCell id="0sKXGP65VLch3woQKcrV-297" style="edgeStyle=orthogonalEdgeStyle;rounded=0;orthogonalLoop=1;jettySize=auto;html=1;curved=0;entryX=1.646;entryY=0.385;entryDx=0;entryDy=0;entryPerimeter=0;exitX=-0.277;exitY=0.23;exitDx=0;exitDy=0;exitPerimeter=0;" parent="1" source="16" target="55" edge="1">
                    <mxGeometry relative="1" as="geometry">
                        <Array as="points"/>
                        <mxPoint x="5075" y="1719.9988235294115" as="sourcePoint"/>
                        <mxPoint x="4800" y="1719.9988235294115" as="targetPoint"/>
                    </mxGeometry>
                </mxCell>
                <mxCell id="0sKXGP65VLch3woQKcrV-298" value="append(NewUserAccountProfileCreated):void" style="edgeLabel;html=1;align=center;verticalAlign=middle;resizable=0;points=[];" parent="0sKXGP65VLch3woQKcrV-297" connectable="0" vertex="1">
                    <mxGeometry x="-0.1654" y="3" relative="1" as="geometry">
                        <mxPoint as="offset"/>
                    </mxGeometry>
                </mxCell>
                <mxCell id="0sKXGP65VLch3woQKcrV-299" style="edgeStyle=orthogonalEdgeStyle;rounded=0;orthogonalLoop=1;jettySize=auto;html=1;curved=0;dashed=1;endArrow=open;endFill=0;exitX=0.5;exitY=0.247;exitDx=0;exitDy=0;exitPerimeter=0;entryX=1.5;entryY=0.255;entryDx=0;entryDy=0;entryPerimeter=0;" parent="1" source="16" target="0sKXGP65VLch3woQKcrV-217" edge="1">
                    <mxGeometry relative="1" as="geometry">
                        <Array as="points"/>
                        <mxPoint x="5045" y="1760.0788235294117" as="sourcePoint"/>
                        <mxPoint x="4770" y="1760.0788235294117" as="targetPoint"/>
                    </mxGeometry>
                </mxCell>
                <mxCell id="0sKXGP65VLch3woQKcrV-301" style="edgeStyle=orthogonalEdgeStyle;rounded=0;orthogonalLoop=1;jettySize=auto;html=1;curved=0;dashed=1;endArrow=open;endFill=0;exitX=0.5;exitY=0.247;exitDx=0;exitDy=0;exitPerimeter=0;entryX=0.55;entryY=0.138;entryDx=0;entryDy=0;entryPerimeter=0;" parent="1" target="85" edge="1">
                    <mxGeometry relative="1" as="geometry">
                        <Array as="points">
                            <mxPoint x="5000" y="1800"/>
                        </Array>
                        <mxPoint x="4730" y="1800" as="sourcePoint"/>
                        <mxPoint x="5090" y="1800.44" as="targetPoint"/>
                    </mxGeometry>
                </mxCell>
                <mxCell id="0sKXGP65VLch3woQKcrV-304" style="edgeStyle=orthogonalEdgeStyle;rounded=0;orthogonalLoop=1;jettySize=auto;html=1;curved=0;dashed=1;endArrow=open;endFill=0;entryX=1.5;entryY=0.493;entryDx=0;entryDy=0;entryPerimeter=0;" parent="1" target="19" edge="1">
                    <mxGeometry relative="1" as="geometry">
                        <Array as="points">
                            <mxPoint x="5443" y="1839"/>
                            <mxPoint x="5443" y="1841"/>
                            <mxPoint x="860" y="1841"/>
                        </Array>
                        <mxPoint x="6825" y="1839.3788235294119" as="sourcePoint"/>
                        <mxPoint x="6550" y="1839.3788235294119" as="targetPoint"/>
                    </mxGeometry>
                </mxCell>
                <mxCell id="0sKXGP65VLch3woQKcrV-306" style="edgeStyle=orthogonalEdgeStyle;rounded=0;orthogonalLoop=1;jettySize=auto;html=1;curved=0;exitX=1.5;exitY=0.504;exitDx=0;exitDy=0;exitPerimeter=0;entryX=0.5;entryY=0.452;entryDx=0;entryDy=0;entryPerimeter=0;" parent="1" source="19" target="36" edge="1">
                    <mxGeometry relative="1" as="geometry">
                        <Array as="points">
                            <mxPoint x="860" y="1881"/>
                        </Array>
                        <mxPoint x="880" y="1880.0488235294115" as="sourcePoint"/>
                        <mxPoint x="1155" y="1880.0488235294115" as="targetPoint"/>
                    </mxGeometry>
                </mxCell>
                <mxCell id="0sKXGP65VLch3woQKcrV-307" value="save(userAccountProfile):void" style="edgeLabel;html=1;align=center;verticalAlign=middle;resizable=0;points=[];" parent="0sKXGP65VLch3woQKcrV-306" connectable="0" vertex="1">
                    <mxGeometry x="-0.1654" y="3" relative="1" as="geometry">
                        <mxPoint as="offset"/>
                    </mxGeometry>
                </mxCell>
                <mxCell id="0sKXGP65VLch3woQKcrV-308" style="edgeStyle=orthogonalEdgeStyle;rounded=0;orthogonalLoop=1;jettySize=auto;html=1;curved=0;dashed=1;endArrow=open;endFill=0;exitX=0.5;exitY=0.464;exitDx=0;exitDy=0;exitPerimeter=0;entryX=1.5;entryY=0.516;entryDx=0;entryDy=0;entryPerimeter=0;" parent="1" source="36" target="19" edge="1">
                    <mxGeometry relative="1" as="geometry">
                        <Array as="points"/>
                        <mxPoint x="2355" y="1919.4288235294116" as="sourcePoint"/>
                        <mxPoint x="2080" y="1919.4288235294116" as="targetPoint"/>
                    </mxGeometry>
                </mxCell>
                <mxCell id="0sKXGP65VLch3woQKcrV-312" style="edgeStyle=orthogonalEdgeStyle;rounded=0;orthogonalLoop=1;jettySize=auto;html=1;curved=0;dashed=1;endArrow=open;endFill=0;exitX=0.5;exitY=0.464;exitDx=0;exitDy=0;exitPerimeter=0;entryX=1.5;entryY=0.516;entryDx=0;entryDy=0;entryPerimeter=0;" parent="1" edge="1">
                    <mxGeometry relative="1" as="geometry">
                        <Array as="points">
                            <mxPoint x="1620" y="1994.68"/>
                            <mxPoint x="1620" y="1995.68"/>
                        </Array>
                        <mxPoint x="2380" y="1994.3700000000006" as="sourcePoint"/>
                        <mxPoint x="860" y="1995.6060000000004" as="targetPoint"/>
                    </mxGeometry>
                </mxCell>
                <mxCell id="0sKXGP65VLch3woQKcrV-315" style="edgeStyle=orthogonalEdgeStyle;rounded=0;orthogonalLoop=1;jettySize=auto;html=1;curved=0;exitX=0.5;exitY=0.55;exitDx=0;exitDy=0;exitPerimeter=0;entryX=1;entryY=0.555;entryDx=0;entryDy=0;entryPerimeter=0;dashed=1;endArrow=open;endFill=0;" parent="1" source="19" target="10" edge="1">
                    <mxGeometry relative="1" as="geometry">
                        <Array as="points"/>
                        <mxPoint x="825" y="2040.0588235294117" as="sourcePoint"/>
                        <mxPoint x="550" y="2040.0588235294117" as="targetPoint"/>
                    </mxGeometry>
                </mxCell>
                <mxCell id="0sKXGP65VLch3woQKcrV-319" style="edgeStyle=orthogonalEdgeStyle;rounded=0;orthogonalLoop=1;jettySize=auto;html=1;curved=0;entryX=1;entryY=0.561;entryDx=0;entryDy=0;entryPerimeter=0;exitX=-0.1;exitY=0.563;exitDx=0;exitDy=0;exitPerimeter=0;" parent="1" source="10" target="7" edge="1">
                    <mxGeometry relative="1" as="geometry">
                        <Array as="points">
                            <mxPoint x="429" y="2077"/>
                        </Array>
                        <mxPoint x="445" y="2077.378823529412" as="sourcePoint"/>
                        <mxPoint x="170" y="2077.378823529412" as="targetPoint"/>
                    </mxGeometry>
                </mxCell>
                <mxCell id="0sKXGP65VLch3woQKcrV-320" value="response(201)" style="edgeLabel;html=1;align=center;verticalAlign=middle;resizable=0;points=[];" parent="0sKXGP65VLch3woQKcrV-319" connectable="0" vertex="1">
                    <mxGeometry x="-0.1654" y="3" relative="1" as="geometry">
                        <mxPoint as="offset"/>
                    </mxGeometry>
                </mxCell>
                <mxCell id="0sKXGP65VLch3woQKcrV-322" style="edgeStyle=orthogonalEdgeStyle;rounded=0;orthogonalLoop=1;jettySize=auto;html=1;curved=0;" parent="1" edge="1">
                    <mxGeometry relative="1" as="geometry">
                        <Array as="points">
                            <mxPoint x="850" y="2277"/>
                            <mxPoint x="440" y="2277"/>
                        </Array>
                        <mxPoint x="850" y="2270" as="sourcePoint"/>
                        <mxPoint x="440" y="2277" as="targetPoint"/>
                    </mxGeometry>
                </mxCell>
                <mxCell id="0sKXGP65VLch3woQKcrV-326" value="throwError(invalidEmail)" style="edgeLabel;html=1;align=center;verticalAlign=middle;resizable=0;points=[];" parent="0sKXGP65VLch3woQKcrV-322" vertex="1" connectable="0">
                    <mxGeometry x="0.0959" y="-2" relative="1" as="geometry">
                        <mxPoint as="offset"/>
                    </mxGeometry>
                </mxCell>
                <mxCell id="0sKXGP65VLch3woQKcrV-324" style="edgeStyle=orthogonalEdgeStyle;rounded=0;orthogonalLoop=1;jettySize=auto;html=1;curved=0;" parent="1" edge="1">
                    <mxGeometry relative="1" as="geometry">
                        <Array as="points">
                            <mxPoint x="305" y="2315.94"/>
                            <mxPoint x="305" y="2315.94"/>
                        </Array>
                        <mxPoint x="435" y="2315.9988235294118" as="sourcePoint"/>
                        <mxPoint x="160" y="2315.9988235294118" as="targetPoint"/>
                    </mxGeometry>
                </mxCell>
                <mxCell id="0sKXGP65VLch3woQKcrV-325" value="response(400)" style="edgeLabel;html=1;align=center;verticalAlign=middle;resizable=0;points=[];" parent="0sKXGP65VLch3woQKcrV-324" connectable="0" vertex="1">
                    <mxGeometry x="-0.1654" y="3" relative="1" as="geometry">
                        <mxPoint as="offset"/>
                    </mxGeometry>
                </mxCell>
                <mxCell id="0sKXGP65VLch3woQKcrV-327" style="edgeStyle=orthogonalEdgeStyle;rounded=0;orthogonalLoop=1;jettySize=auto;html=1;curved=0;exitX=0.5;exitY=0.374;exitDx=0;exitDy=0;exitPerimeter=0;entryX=0.85;entryY=0.607;entryDx=0;entryDy=0;entryPerimeter=0;" parent="1" target="19" edge="1">
                    <mxGeometry relative="1" as="geometry">
                        <Array as="points">
                            <mxPoint x="6510" y="2240"/>
                        </Array>
                        <mxPoint x="6510" y="2248.3599999999997" as="sourcePoint"/>
                        <mxPoint x="1578" y="2259.95" as="targetPoint"/>
                    </mxGeometry>
                </mxCell>
                <mxCell id="0sKXGP65VLch3woQKcrV-328" value="throwError(invalifEmail)" style="edgeLabel;html=1;align=center;verticalAlign=middle;resizable=0;points=[];" parent="0sKXGP65VLch3woQKcrV-327" connectable="0" vertex="1">
                    <mxGeometry x="-0.1654" y="3" relative="1" as="geometry">
                        <mxPoint as="offset"/>
                    </mxGeometry>
                </mxCell>
                <mxCell id="0sKXGP65VLch3woQKcrV-329" style="edgeStyle=orthogonalEdgeStyle;rounded=0;orthogonalLoop=1;jettySize=auto;html=1;curved=0;entryX=1.5;entryY=0.664;entryDx=0;entryDy=0;entryPerimeter=0;exitX=1.3;exitY=0.461;exitDx=0;exitDy=0;exitPerimeter=0;" parent="1" source="122" target="19" edge="1">
                    <mxGeometry relative="1" as="geometry">
                        <Array as="points">
                            <mxPoint x="6188" y="2440"/>
                        </Array>
                        <mxPoint x="6520" y="2448" as="sourcePoint"/>
                        <mxPoint x="871.75" y="2439.997" as="targetPoint"/>
                    </mxGeometry>
                </mxCell>
                <mxCell id="0sKXGP65VLch3woQKcrV-330" value="throwError(iPhoneNumber)" style="edgeLabel;html=1;align=center;verticalAlign=middle;resizable=0;points=[];" parent="0sKXGP65VLch3woQKcrV-329" connectable="0" vertex="1">
                    <mxGeometry x="-0.1654" y="3" relative="1" as="geometry">
                        <mxPoint as="offset"/>
                    </mxGeometry>
                </mxCell>
                <mxCell id="0sKXGP65VLch3woQKcrV-331" style="edgeStyle=orthogonalEdgeStyle;rounded=0;orthogonalLoop=1;jettySize=auto;html=1;curved=0;" parent="1" edge="1">
                    <mxGeometry relative="1" as="geometry">
                        <Array as="points">
                            <mxPoint x="850" y="2477"/>
                            <mxPoint x="440" y="2477"/>
                        </Array>
                        <mxPoint x="850" y="2470" as="sourcePoint"/>
                        <mxPoint x="440" y="2477" as="targetPoint"/>
                    </mxGeometry>
                </mxCell>
                <mxCell id="0sKXGP65VLch3woQKcrV-332" value="throwError(invalidPhoneNumber)" style="edgeLabel;html=1;align=center;verticalAlign=middle;resizable=0;points=[];" parent="0sKXGP65VLch3woQKcrV-331" vertex="1" connectable="0">
                    <mxGeometry x="0.0959" y="-2" relative="1" as="geometry">
                        <mxPoint as="offset"/>
                    </mxGeometry>
                </mxCell>
                <mxCell id="0sKXGP65VLch3woQKcrV-333" style="edgeStyle=orthogonalEdgeStyle;rounded=0;orthogonalLoop=1;jettySize=auto;html=1;curved=0;" parent="1" edge="1">
                    <mxGeometry relative="1" as="geometry">
                        <Array as="points">
                            <mxPoint x="305" y="2519.94"/>
                            <mxPoint x="305" y="2519.94"/>
                        </Array>
                        <mxPoint x="435" y="2519.9988235294113" as="sourcePoint"/>
                        <mxPoint x="160" y="2519.9988235294113" as="targetPoint"/>
                    </mxGeometry>
                </mxCell>
                <mxCell id="0sKXGP65VLch3woQKcrV-334" value="response(400)" style="edgeLabel;html=1;align=center;verticalAlign=middle;resizable=0;points=[];" parent="0sKXGP65VLch3woQKcrV-333" connectable="0" vertex="1">
                    <mxGeometry x="-0.1654" y="3" relative="1" as="geometry">
                        <mxPoint as="offset"/>
                    </mxGeometry>
                </mxCell>
                <mxCell id="0sKXGP65VLch3woQKcrV-336" style="edgeStyle=orthogonalEdgeStyle;rounded=0;orthogonalLoop=1;jettySize=auto;html=1;curved=0;entryX=1.5;entryY=0.72;entryDx=0;entryDy=0;entryPerimeter=0;exitX=-0.2;exitY=0.567;exitDx=0;exitDy=0;exitPerimeter=0;" parent="1" source="110" target="19" edge="1">
                    <mxGeometry relative="1" as="geometry">
                        <Array as="points">
                            <mxPoint x="5720" y="2639"/>
                            <mxPoint x="5720" y="2637"/>
                        </Array>
                        <mxPoint x="6198" y="2636.0299999999997" as="sourcePoint"/>
                        <mxPoint x="881.75" y="2637.9969999999994" as="targetPoint"/>
                    </mxGeometry>
                </mxCell>
                <mxCell id="0sKXGP65VLch3woQKcrV-337" value="throwError(invalidUserAccountProfileId)" style="edgeLabel;html=1;align=center;verticalAlign=middle;resizable=0;points=[];" parent="0sKXGP65VLch3woQKcrV-336" connectable="0" vertex="1">
                    <mxGeometry x="-0.1654" y="3" relative="1" as="geometry">
                        <mxPoint as="offset"/>
                    </mxGeometry>
                </mxCell>
                <mxCell id="0sKXGP65VLch3woQKcrV-338" style="edgeStyle=orthogonalEdgeStyle;rounded=0;orthogonalLoop=1;jettySize=auto;html=1;curved=0;" parent="1" edge="1">
                    <mxGeometry relative="1" as="geometry">
                        <Array as="points">
                            <mxPoint x="850" y="2677"/>
                            <mxPoint x="440" y="2677"/>
                        </Array>
                        <mxPoint x="850" y="2670" as="sourcePoint"/>
                        <mxPoint x="440" y="2677" as="targetPoint"/>
                    </mxGeometry>
                </mxCell>
                <mxCell id="0sKXGP65VLch3woQKcrV-339" value="throwError(invalidUserAccountProfileId)" style="edgeLabel;html=1;align=center;verticalAlign=middle;resizable=0;points=[];" parent="0sKXGP65VLch3woQKcrV-338" vertex="1" connectable="0">
                    <mxGeometry x="0.0959" y="-2" relative="1" as="geometry">
                        <mxPoint as="offset"/>
                    </mxGeometry>
                </mxCell>
                <mxCell id="0sKXGP65VLch3woQKcrV-340" style="edgeStyle=orthogonalEdgeStyle;rounded=0;orthogonalLoop=1;jettySize=auto;html=1;curved=0;" parent="1" edge="1">
                    <mxGeometry relative="1" as="geometry">
                        <Array as="points">
                            <mxPoint x="305" y="2719.94"/>
                            <mxPoint x="305" y="2719.94"/>
                        </Array>
                        <mxPoint x="435" y="2719.9988235294113" as="sourcePoint"/>
                        <mxPoint x="160" y="2719.9988235294113" as="targetPoint"/>
                    </mxGeometry>
                </mxCell>
                <mxCell id="0sKXGP65VLch3woQKcrV-341" value="response(500)" style="edgeLabel;html=1;align=center;verticalAlign=middle;resizable=0;points=[];" parent="0sKXGP65VLch3woQKcrV-340" connectable="0" vertex="1">
                    <mxGeometry x="-0.1654" y="3" relative="1" as="geometry">
                        <mxPoint as="offset"/>
                    </mxGeometry>
                </mxCell>
                <mxCell id="0sKXGP65VLch3woQKcrV-343" style="edgeStyle=orthogonalEdgeStyle;rounded=0;orthogonalLoop=1;jettySize=auto;html=1;curved=0;entryX=1.5;entryY=0.72;entryDx=0;entryDy=0;entryPerimeter=0;" parent="1" edge="1">
                    <mxGeometry relative="1" as="geometry">
                        <Array as="points">
                            <mxPoint x="5501" y="2870"/>
                            <mxPoint x="5480" y="2870"/>
                            <mxPoint x="5480" y="2868"/>
                        </Array>
                        <mxPoint x="5500" y="2868" as="sourcePoint"/>
                        <mxPoint x="860" y="2868.149999999999" as="targetPoint"/>
                    </mxGeometry>
                </mxCell>
                <mxCell id="0sKXGP65VLch3woQKcrV-344" value="throwError(invalidUserAccountId)" style="edgeLabel;html=1;align=center;verticalAlign=middle;resizable=0;points=[];" parent="0sKXGP65VLch3woQKcrV-343" connectable="0" vertex="1">
                    <mxGeometry x="-0.1654" y="3" relative="1" as="geometry">
                        <mxPoint as="offset"/>
                    </mxGeometry>
                </mxCell>
                <mxCell id="0sKXGP65VLch3woQKcrV-345" style="edgeStyle=orthogonalEdgeStyle;rounded=0;orthogonalLoop=1;jettySize=auto;html=1;curved=0;" parent="1" edge="1">
                    <mxGeometry relative="1" as="geometry">
                        <Array as="points">
                            <mxPoint x="850" y="2917"/>
                            <mxPoint x="440" y="2917"/>
                        </Array>
                        <mxPoint x="850" y="2910" as="sourcePoint"/>
                        <mxPoint x="440" y="2917" as="targetPoint"/>
                    </mxGeometry>
                </mxCell>
                <mxCell id="0sKXGP65VLch3woQKcrV-346" value="throwError(invalidUserAccountId)" style="edgeLabel;html=1;align=center;verticalAlign=middle;resizable=0;points=[];" parent="0sKXGP65VLch3woQKcrV-345" vertex="1" connectable="0">
                    <mxGeometry x="0.0959" y="-2" relative="1" as="geometry">
                        <mxPoint as="offset"/>
                    </mxGeometry>
                </mxCell>
                <mxCell id="0sKXGP65VLch3woQKcrV-347" style="edgeStyle=orthogonalEdgeStyle;rounded=0;orthogonalLoop=1;jettySize=auto;html=1;curved=0;" parent="1" edge="1">
                    <mxGeometry relative="1" as="geometry">
                        <Array as="points">
                            <mxPoint x="305" y="2959.94"/>
                            <mxPoint x="305" y="2959.94"/>
                        </Array>
                        <mxPoint x="435" y="2959.9988235294113" as="sourcePoint"/>
                        <mxPoint x="160" y="2959.9988235294113" as="targetPoint"/>
                    </mxGeometry>
                </mxCell>
                <mxCell id="0sKXGP65VLch3woQKcrV-348" value="response(400)" style="edgeLabel;html=1;align=center;verticalAlign=middle;resizable=0;points=[];" parent="0sKXGP65VLch3woQKcrV-347" connectable="0" vertex="1">
                    <mxGeometry x="-0.1654" y="3" relative="1" as="geometry">
                        <mxPoint as="offset"/>
                    </mxGeometry>
                </mxCell>
                <mxCell id="0sKXGP65VLch3woQKcrV-349" style="edgeStyle=orthogonalEdgeStyle;rounded=0;orthogonalLoop=1;jettySize=auto;html=1;curved=0;exitX=0.3;exitY=0.849;exitDx=0;exitDy=0;exitPerimeter=0;dashed=1;endArrow=open;endFill=0;" parent="1" source="174" edge="1">
                    <mxGeometry relative="1" as="geometry">
                        <Array as="points">
                            <mxPoint x="870" y="3117"/>
                        </Array>
                        <mxPoint x="860" y="3110" as="sourcePoint"/>
                        <mxPoint x="850" y="3117" as="targetPoint"/>
                    </mxGeometry>
                </mxCell>
                <mxCell id="0sKXGP65VLch3woQKcrV-350" value="false" style="edgeLabel;html=1;align=center;verticalAlign=middle;resizable=0;points=[];" parent="0sKXGP65VLch3woQKcrV-349" vertex="1" connectable="0">
                    <mxGeometry x="0.0959" y="-2" relative="1" as="geometry">
                        <mxPoint as="offset"/>
                    </mxGeometry>
                </mxCell>
                <mxCell id="0sKXGP65VLch3woQKcrV-351" style="edgeStyle=orthogonalEdgeStyle;rounded=0;orthogonalLoop=1;jettySize=auto;html=1;curved=0;" parent="1" edge="1">
                    <mxGeometry relative="1" as="geometry">
                        <Array as="points">
                            <mxPoint x="850" y="3157"/>
                            <mxPoint x="440" y="3157"/>
                        </Array>
                        <mxPoint x="850" y="3150" as="sourcePoint"/>
                        <mxPoint x="440" y="3157" as="targetPoint"/>
                    </mxGeometry>
                </mxCell>
                <mxCell id="0sKXGP65VLch3woQKcrV-352" value="throwError(invalidPhoneNumber)" style="edgeLabel;html=1;align=center;verticalAlign=middle;resizable=0;points=[];" parent="0sKXGP65VLch3woQKcrV-351" vertex="1" connectable="0">
                    <mxGeometry x="0.0959" y="-2" relative="1" as="geometry">
                        <mxPoint as="offset"/>
                    </mxGeometry>
                </mxCell>
                <mxCell id="0sKXGP65VLch3woQKcrV-353" style="edgeStyle=orthogonalEdgeStyle;rounded=0;orthogonalLoop=1;jettySize=auto;html=1;curved=0;" parent="1" edge="1">
                    <mxGeometry relative="1" as="geometry">
                        <Array as="points">
                            <mxPoint x="295" y="3199.94"/>
                            <mxPoint x="295" y="3199.94"/>
                        </Array>
                        <mxPoint x="425" y="3199.9988235294113" as="sourcePoint"/>
                        <mxPoint x="150" y="3199.9988235294113" as="targetPoint"/>
                    </mxGeometry>
                </mxCell>
                <mxCell id="0sKXGP65VLch3woQKcrV-354" value="response(400)" style="edgeLabel;html=1;align=center;verticalAlign=middle;resizable=0;points=[];" parent="0sKXGP65VLch3woQKcrV-353" connectable="0" vertex="1">
                    <mxGeometry x="-0.1654" y="3" relative="1" as="geometry">
                        <mxPoint as="offset"/>
                    </mxGeometry>
                </mxCell>
                <mxCell id="0sKXGP65VLch3woQKcrV-356" value="if phonenumber Validator returns True" style="label;fontStyle=0;strokeColor=none;fillColor=none;align=left;verticalAlign=top;overflow=hidden;spacingLeft=28;spacingRight=4;rotatable=0;points=[[0,0.5],[1,0.5]];portConstraint=eastwest;imageWidth=16;imageHeight=16;image=img/clipart/Gear_128x128.png;opacity=40;" parent="1" vertex="1">
                    <mxGeometry x="-940" y="3090" width="270" height="30" as="geometry"/>
                </mxCell>
            </root>
        </mxGraphModel>
    </diagram>
</mxfile>